<svg xmlns="http://www.w3.org/2000/svg" viewBox="0 0 256 256">
  <defs>
    <linearGradient id="bg" x1="0%" x2="100%" y1="0%" y2="100%">
      <stop offset="0%" stop-color="#28544f"/>
      <stop offset="100%" stop-color="#dc8753"/>
    </linearGradient>
  </defs>
  <rect width="256" height="256" rx="56" fill="url(#bg)"/>
  <path fill="#fff8ef" d="M128 49c-39.7 0-72 32.3-72 72 0 26.5 14.5 50.5 37.7 63 10.1 5.4 22.5 8 34.3 8s24.2-2.6 34.3-8C185.5 171.5 200 147.5 200 121c0-39.7-32.3-72-72-72Zm0 22c27.6 0 50 22.4 50 50 0 18.2-9.9 34.3-24.6 43-6.3 3.7-15.2 6-25.4 6s-19.1-2.3-25.4-6C87.9 155.3 78 139.2 78 121c0-27.6 22.4-50 50-50Zm-18 36c-9.9 0-18 8.1-18 18s8.1 18 18 18 18-8.1 18-18-8.1-18-18-18Zm36 0c-9.9 0-18 8.1-18 18s8.1 18 18 18 18-8.1 18-18-8.1-18-18-18Zm-48.4 47.8c-4 0-6.9 3.7-5.8 7.6 4.8 17.2 19.9 28.6 36.2 28.6s31.4-11.4 36.2-28.6c1.1-3.9-1.8-7.6-5.8-7.6h-60.8Z"/>
</svg>
